<svg width="1729" height="1118" viewBox="0 0 1729 1118" fill="none" xmlns="http://www.w3.org/2000/svg">
<path d="M901.142 619.25L770.791 674.719M901.142 619.25L924.023 693.439M901.142 619.25L780.498 603.996M901.142 619.25L1068.24 660.158M901.142 619.25L848.447 446.604M901.142 619.25L871.328 427.883M901.142 619.25L1064.77 553.381M901.142 619.25L1039.81 452.151M770.791 674.719L924.023 693.439M770.791 674.719L780.498 603.996M770.791 674.719L749.99 805.07M770.791 674.719L730.576 714.24M770.791 674.719L637.666 542.981M924.023 693.439L749.99 805.07M924.023 693.439L973.945 850.138M924.023 693.439L1068.24 660.158M924.023 693.439L1009.31 822.404M780.498 603.996L848.447 446.604M780.498 603.996L637.666 542.981M749.99 805.07L730.576 714.24M749.99 805.07L706.309 803.683M749.99 805.07L973.945 850.138M749.99 805.07L932.344 941.661M749.99 805.07L749.297 944.435M637.666 542.981L730.576 714.24M637.666 542.981L848.447 446.604M637.666 542.981L684.121 364.787M637.666 542.981L527.422 624.103M637.666 542.981L503.848 534.66M637.666 542.981L535.743 418.869M637.666 542.981L621.026 371.028M730.576 714.24L706.309 803.683M730.576 714.24L557.237 769.015M730.576 714.24L527.422 624.103M706.309 803.683L557.237 769.015M706.309 803.683L749.297 944.435M706.309 803.683L616.172 991.583M706.309 803.683L602.305 990.197M932.344 941.661L973.945 850.138M932.344 941.661L749.297 944.435M932.344 941.661L770.791 1053.99M932.344 941.661L1089.04 986.73M932.344 941.661L1012.77 1051.91M932.344 941.661L867.168 1115.69M973.945 850.138L1009.31 822.404M973.945 850.138L1089.04 986.73M1068.24 660.158L1009.31 822.404M1068.24 660.158L1064.77 553.381M1068.24 660.158L1131.34 649.758M1068.24 660.158L1116.78 816.164M1009.31 822.404L1116.78 816.164M1009.31 822.404L1089.04 986.73M848.447 446.604L871.328 427.883M848.447 446.604L684.121 364.787M848.447 446.604L842.9 337.053M871.328 427.883L1039.81 452.151M871.328 427.883L842.9 337.053M871.328 427.883L1016.24 366.174M1064.77 553.381L1131.34 649.758M1064.77 553.381L1039.81 452.151M1064.77 553.381L1233.26 502.766M557.237 769.015L527.422 624.103M557.237 769.015L424.112 861.925M557.237 769.015L379.044 625.49M557.237 769.015L602.305 990.197M684.121 364.787L842.9 337.053M684.121 364.787L621.026 371.028M684.121 364.787L808.926 183.128M684.121 364.787L641.827 172.034M1039.81 452.151L1233.26 502.766M1039.81 452.151L1016.24 366.174M1039.81 452.151L1235.34 375.188M1089.04 986.73L1116.78 816.164M1089.04 986.73L1012.77 1051.91M1089.04 986.73L1231.87 884.806M1089.04 986.73L1175.02 1060.23M1116.78 816.164L1131.34 649.758M1116.78 816.164L1299.82 744.748M1116.78 816.164L1231.87 884.806M1116.78 816.164L1299.82 751.681M749.297 944.435L616.172 991.583M749.297 944.435L770.791 1053.99M1131.34 649.758L1233.26 502.766M1131.34 649.758L1341.42 581.115M1131.34 649.758L1299.82 744.748M1233.26 502.766L1341.42 581.115M1233.26 502.766L1235.34 375.188M1233.26 502.766L1254.06 417.483M1233.26 502.766L1419.08 474.338M527.422 624.103L503.848 534.66M527.422 624.103L469.874 559.621M527.422 624.103L379.044 625.49M616.172 991.583L770.791 1053.99M616.172 991.583L602.305 990.197M616.172 991.583L666.094 1117.08M616.172 991.583L569.024 1107.37M842.9 337.053L1016.24 366.174M842.9 337.053L808.926 183.128M842.9 337.053L867.861 277.424M503.848 534.66L535.743 418.869M503.848 534.66L469.874 559.621M503.848 534.66L424.112 475.031M1016.24 366.174L1235.34 375.188M1016.24 366.174L867.861 277.424M1016.24 366.174L971.865 200.462M1016.24 366.174L1136.19 271.877M1235.34 375.188L1254.06 417.483M1235.34 375.188L1136.19 271.877M1235.34 375.188L1251.29 235.823M1235.34 375.188L1292.89 269.797M535.743 418.869L621.026 371.028M535.743 418.869L424.112 475.031M535.743 418.869L418.565 285.745M535.743 418.869L514.942 264.251M379.044 625.49L424.112 861.925M379.044 625.49L469.874 559.621M379.044 625.49L424.112 475.031M379.044 625.49L262.56 755.148M379.044 625.49L342.296 621.33M379.044 625.49L336.749 489.592M424.112 861.925L602.305 990.197M424.112 861.925L262.56 755.148M424.112 861.925V1018.62M424.112 861.925L389.444 934.728M424.112 861.925L343.683 887.58M621.026 371.028L514.942 264.251M621.026 371.028L641.827 172.034M514.942 264.251L641.827 172.034M514.942 264.251L418.565 285.745M514.942 264.251L385.284 223.342M514.942 264.251L593.291 151.233M514.942 264.251L410.938 106.858M641.827 172.034L808.926 183.128M641.827 172.034L725.723 119.339M641.827 172.034L593.291 151.233M641.827 172.034L608.545 104.085M770.791 1053.99L666.094 1117.08M770.791 1053.99L867.168 1115.69M602.305 990.197L569.024 1107.37M602.305 990.197L424.112 1018.62M1012.77 1051.91L867.168 1115.69M1012.77 1051.91L1175.02 1060.23M469.874 559.621L424.112 475.031M424.112 475.031L418.565 285.745M424.112 475.031L336.749 489.592M424.112 475.031L335.362 337.746M666.094 1117.08L867.168 1115.69M666.094 1117.08L569.024 1107.37M666.094 1117.08L240.372 1103.21M666.094 1117.08L1801.12 1114.31M666.094 1117.08L-222.791 1108.76M808.926 183.128L867.861 277.424M808.926 183.128L971.865 200.462M808.926 183.128L725.723 119.339M808.926 183.128L795.059 25.0419M808.926 183.128L889.355 92.2977M867.861 277.424L971.865 200.462M867.168 1115.69L1175.02 1060.23M867.168 1115.69L1426.01 1062.31M867.168 1115.69L1801.12 1114.31M1341.42 581.115L1299.82 744.748M1341.42 581.115L1397.59 667.785M1341.42 581.115L1419.08 474.338M1341.42 581.115L1404.52 578.342M1299.82 744.748V751.681M1299.82 744.748L1397.59 667.785M1231.87 884.806L1175.02 1060.23M1231.87 884.806L1299.82 751.681M1231.87 884.806L1302.6 900.06M1231.87 884.806L1271.4 1000.6M1175.02 1060.23L1271.4 1000.6M1175.02 1060.23L1426.01 1062.31M1299.82 751.681L1302.6 900.06M1299.82 751.681L1397.59 667.785M1299.82 751.681L1422.55 888.273M418.565 285.745L385.284 223.342M418.565 285.745L335.362 337.746M418.565 285.745L353.39 230.276M569.024 1107.37L424.112 1018.62M569.024 1107.37L240.372 1103.21M971.865 200.462L1136.19 271.877M971.865 200.462L889.355 92.2977M971.865 200.462L1003.07 46.5361M971.865 200.462L1066.16 122.112M1419.08 474.338L1254.06 417.483M1419.08 474.338L1292.89 269.797M1419.08 474.338L1404.52 578.342M1419.08 474.338L1570.93 616.476M1419.08 474.338L1392.04 248.997M1419.08 474.338L1546.66 380.041M1419.08 474.338L1623.62 499.299M1254.06 417.483L1292.89 269.797M1136.19 271.877L1066.16 122.112M1136.19 271.877L1211.07 197.688M1136.19 271.877L1251.29 235.823M1292.89 269.797L1251.29 235.823M1292.89 269.797L1392.04 248.997M1251.29 235.823L1211.07 197.688M1251.29 235.823L1331.72 43.7626M1251.29 235.823L1392.04 248.997M1397.59 667.785L1422.55 888.273M1397.59 667.785L1404.52 578.342M1397.59 667.785L1570.93 616.476M1397.59 667.785L1483.56 864.699M1397.59 667.785L1561.91 689.972M1302.6 900.06L1271.4 1000.6M1302.6 900.06L1422.55 888.273M1271.4 1000.6L1422.55 888.273M1271.4 1000.6L1426.01 1062.31M262.56 755.148L343.683 887.58M262.56 755.148L342.296 621.33M262.56 755.148L250.079 606.769M262.56 755.148L157.169 789.816M262.56 755.148L207.784 739.894M336.749 489.592L342.296 621.33M336.749 489.592L335.362 337.746M336.749 489.592L250.079 606.769M336.749 489.592L129.435 511.779M336.749 489.592L116.954 396.682M336.749 489.592L202.931 310.706M342.296 621.33L250.079 606.769M424.112 1018.62L389.444 934.728M424.112 1018.62L240.372 1103.21M343.683 887.58L389.444 934.728M343.683 887.58L157.169 789.816M343.683 887.58L203.624 1049.13M343.683 887.58L125.968 949.982M389.444 934.728L240.372 1103.21M389.444 934.728L203.624 1049.13M335.362 337.746L353.39 230.276M335.362 337.746L202.931 310.706M240.372 1103.21L203.624 1049.13M240.372 1103.21L-1.60982 1092.12M240.372 1103.21L-222.791 1108.76M1422.55 888.273L1483.56 864.699M1422.55 888.273L1567.46 981.183M1422.55 888.273L1426.01 1062.31M1404.52 578.342L1570.93 616.476M795.059 25.0419L725.723 119.339M795.059 25.0419L608.545 104.085M795.059 25.0419L889.355 92.2977M795.059 25.0419L1003.07 46.5361M795.059 25.0419L352.003 70.8036M795.059 25.0419L1541.81 0.0810547M795.059 25.0419L236.212 9.78806M725.723 119.339L608.545 104.085M385.284 223.342L410.938 106.858M385.284 223.342L353.39 230.276M593.291 151.233L608.545 104.085M593.291 151.233L410.938 106.858M608.545 104.085L410.938 106.858M608.545 104.085L352.003 70.8036M889.355 92.2977L1003.07 46.5361M1003.07 46.5361L1066.16 122.112M1003.07 46.5361L1146.59 98.5379M1003.07 46.5361L1331.72 43.7626M1003.07 46.5361L1541.81 0.0810547M250.079 606.769L129.435 511.779M250.079 606.769L207.784 739.894M250.079 606.769L102.394 698.293M1066.16 122.112L1211.07 197.688M1066.16 122.112L1146.59 98.5379M1211.07 197.688L1146.59 98.5379M1211.07 197.688L1331.72 43.7626M1331.72 43.7626L1146.59 98.5379M1331.72 43.7626L1392.04 248.997M1331.72 43.7626L1477.32 105.471M1331.72 43.7626L1541.81 0.0810547M129.435 511.779L116.954 396.682M129.435 511.779L102.394 698.293M129.435 511.779L46.2319 515.246M129.435 511.779L97.5404 441.057M1570.93 616.476L1561.91 689.972M1570.93 616.476L1626.39 739.894M1570.93 616.476L1623.62 499.299M1570.93 616.476L1840.64 597.756M353.39 230.276L410.938 106.858M353.39 230.276L202.931 310.706M353.39 230.276L179.357 155.393M353.39 230.276L352.003 70.8036M410.938 106.858L352.003 70.8036M157.169 789.816L207.784 739.894M157.169 789.816L102.394 698.293M157.169 789.816L125.968 949.982M157.169 789.816L26.1245 907.687M157.169 789.816L6.71049 810.617M203.624 1049.13L125.968 949.982M203.624 1049.13L-1.60982 1092.12M207.784 739.894L102.394 698.293M102.394 698.293L46.2319 515.246M102.394 698.293L6.71049 810.617M102.394 698.293L-14.7836 763.468M102.394 698.293L-95.2131 644.904M102.394 698.293L-66.0921 579.728M1483.56 864.699L1567.46 981.183M1483.56 864.699L1561.91 689.972M1483.56 864.699L1589.65 857.765M1567.46 981.183L1589.65 857.765M1567.46 981.183L1426.01 1062.31M1567.46 981.183L1548.74 1050.52M1567.46 981.183L1724.16 902.14M1567.46 981.183L1701.28 1027.64M116.954 396.682L202.931 310.706M116.954 396.682L6.71049 318.332M116.954 396.682L97.5404 441.057M1392.04 248.997L1453.06 239.983M1392.04 248.997L1546.66 380.041M1392.04 248.997L1477.32 105.471M1453.06 239.983L1546.66 380.041M1453.06 239.983L1477.32 105.471M1453.06 239.983L1524.47 246.917M1546.66 380.041L1623.62 499.299M1546.66 380.041L1524.47 246.917M1546.66 380.041L1629.17 229.583M1546.66 380.041L1681.17 320.413M1426.01 1062.31L1548.74 1050.52M1426.01 1062.31L1801.12 1114.31M1561.91 689.972L1589.65 857.765M1561.91 689.972L1626.39 739.894M1561.91 689.972L1627.09 751.681M1589.65 857.765L1627.09 751.681M1589.65 857.765L1724.16 902.14M352.003 70.8036L179.357 155.393M352.003 70.8036L236.212 9.78806M202.931 310.706L179.357 155.393M202.931 310.706L6.71049 318.332M202.931 310.706L14.3374 178.274M179.357 155.393L236.212 9.78806M179.357 155.393L14.3374 178.274M179.357 155.393L63.5659 66.6434M125.968 949.982L26.1245 907.687M125.968 949.982L-1.60982 1092.12M1623.62 499.299L1840.64 597.756M1623.62 499.299L1731.79 473.645M1623.62 499.299L1681.17 320.413M1626.39 739.894L1627.09 751.681M1626.39 739.894L1762.29 773.869M1626.39 739.894L1840.64 597.756M1626.39 739.894L1844.11 693.439M26.1245 907.687L6.71049 810.617M26.1245 907.687L-31.4242 882.033M26.1245 907.687L-1.60982 1092.12M26.1245 907.687L-72.3323 1044.97M-1.60982 1092.12L-72.3323 1044.97M-1.60982 1092.12L-222.791 1108.76M1627.09 751.681L1724.16 902.14M1627.09 751.681L1762.29 773.869M1724.16 902.14L1701.28 1027.64M1724.16 902.14L1762.29 773.869M1724.16 902.14L1821.92 881.339M46.2319 515.246L-86.8928 476.418M46.2319 515.246L97.5404 441.057M46.2319 515.246L-66.0921 579.728M6.71049 318.332L97.5404 441.057M6.71049 318.332L-23.1039 321.799M6.71049 318.332L14.3374 178.274M97.5404 441.057L-86.8928 476.418M97.5404 441.057L-23.1039 321.799M1548.74 1050.52L1701.28 1027.64M1548.74 1050.52L1801.12 1114.31M1840.64 597.756L1731.79 473.645M1840.64 597.756L1844.11 693.439M1840.64 597.756L1915.53 631.73M1840.64 597.756L1885.71 419.563M1840.64 597.756L1953.66 610.236M1731.79 473.645L1681.17 320.413M1731.79 473.645L1774.77 373.108M1731.79 473.645L1885.71 419.563M1477.32 105.471L1524.47 246.917M1477.32 105.471L1580.63 174.114M1477.32 105.471L1541.81 0.0810547M1541.81 0.0810547L1690.88 111.018M1541.81 0.0810547L1580.63 174.114M1541.81 0.0810547L236.212 9.78806M1541.81 0.0810547L1813.6 29.8955M1541.81 0.0810547L2067.37 40.2958M1524.47 246.917L1580.63 174.114M1524.47 246.917L1629.17 229.583M1580.63 174.114L1629.17 229.583M1580.63 174.114L1690.88 111.018M1629.17 229.583L1681.17 320.413M1629.17 229.583L1690.88 111.018M1629.17 229.583L1785.17 215.022M-86.8928 476.418L-66.0921 579.728M-86.8928 476.418L-23.1039 321.799M-86.8928 476.418L-140.281 474.338M6.71049 810.617L-14.7836 763.468M6.71049 810.617L-31.4242 882.033M-14.7836 763.468L-95.2131 644.904M-14.7836 763.468L-31.4242 882.033M-14.7836 763.468L-172.869 915.314M-14.7836 763.468L-250.525 752.375M-31.4242 882.033L-172.869 915.314M-31.4242 882.033L-72.3323 1044.97M-95.2131 644.904L-66.0921 579.728M-95.2131 644.904L-154.842 640.744M-95.2131 644.904L-157.615 598.449M-95.2131 644.904L-250.525 752.375M1681.17 320.413L1774.77 373.108M1681.17 320.413L1794.88 359.934M1681.17 320.413L1785.17 215.022M1762.29 773.869L1821.92 881.339M1762.29 773.869L1844.11 693.439M1762.29 773.869L1873.92 843.205M1701.28 1027.64L1821.92 881.339M1701.28 1027.64L1889.87 1029.02M1701.28 1027.64L1801.12 1114.31M236.212 9.78806L63.5659 66.6434M236.212 9.78806L-76.4925 45.1493M-23.1039 321.799L14.3374 178.274M-23.1039 321.799L-140.281 474.338M-23.1039 321.799L-171.483 198.381M-23.1039 321.799L-246.365 276.731M14.3374 178.274L63.5659 66.6434M14.3374 178.274L-171.483 198.381M14.3374 178.274L-129.881 139.446M14.3374 178.274L-76.4925 45.1493M-66.0921 579.728L-140.281 474.338M-66.0921 579.728L-157.615 598.449M-172.869 915.314L-72.3323 1044.97M-172.869 915.314L-250.525 752.375M-172.869 915.314L-222.791 1108.76M-172.869 915.314L-346.902 940.968M-172.869 915.314L-328.875 798.136M1821.92 881.339L1873.92 843.205M1821.92 881.339L1936.33 879.953M1821.92 881.339L1889.87 1029.02M-154.842 640.744L-157.615 598.449M-154.842 640.744L-250.525 752.375M-154.842 640.744L-357.303 629.65M-157.615 598.449L-140.281 474.338M-157.615 598.449L-342.049 496.526M-157.615 598.449L-357.303 629.65M-72.3323 1044.97L-222.791 1108.76M1690.88 111.018L1785.17 215.022M1690.88 111.018L1870.46 154.7M1690.88 111.018L1813.6 29.8955M-140.281 474.338L-246.365 276.731M-140.281 474.338L-342.049 496.526M-140.281 474.338L-326.795 445.217M63.5659 66.6434L-76.4925 45.1493M1774.77 373.108L1794.88 359.934M1774.77 373.108L1885.71 419.563M1785.17 215.022L1929.39 359.241M1785.17 215.022L1794.88 359.934M1785.17 215.022L1870.46 154.7M1794.88 359.934L1885.71 419.563M1794.88 359.934L1929.39 359.241M1885.71 419.563L1953.66 610.236M1885.71 419.563L1929.39 359.241M1885.71 419.563L2003.58 398.069M1885.71 419.563L2011.21 594.289M1844.11 693.439L1873.92 843.205M1844.11 693.439L1915.53 631.73M1844.11 693.439L2053.5 805.07M1873.92 843.205L1936.33 879.953M1873.92 843.205L2053.5 805.07M-250.525 752.375L-328.875 798.136M-250.525 752.375L-357.303 629.65M-171.483 198.381L-129.881 139.446M-171.483 198.381L-197.137 89.5243M-171.483 198.381L-246.365 276.731M-171.483 198.381L-281.726 212.942M-246.365 276.731L-281.726 212.942M-246.365 276.731L-285.193 255.93M-246.365 276.731L-326.795 445.217M1915.53 631.73L2053.5 805.07M1915.53 631.73L1953.66 610.236M1915.53 631.73L2061.13 671.945M1936.33 879.953L1889.87 1029.02M1936.33 879.953L2053.5 805.07M1936.33 879.953L2104.12 916.007M1936.33 879.953L2083.32 996.437M1929.39 359.241L2003.58 398.069M1929.39 359.241L1870.46 154.7M1929.39 359.241L2074.3 133.899M1929.39 359.241L2090.25 369.641M1889.87 1029.02L1801.12 1114.31M1889.87 1029.02L2083.32 996.437M1801.12 1114.31L2083.32 996.437M2053.5 805.07L2104.12 916.007M2053.5 805.07L2061.13 671.945M1953.66 610.236L2061.13 671.945M1953.66 610.236L2011.21 594.289M-328.875 798.136L-357.303 629.65M-328.875 798.136L-346.902 940.968M-357.303 629.65L-342.049 496.526M-357.303 629.65L-346.902 940.968M-357.303 629.65L-375.33 1053.99M-357.303 629.65L-372.556 115.872M2061.13 671.945L2011.21 594.289M2061.13 671.945L2104.12 916.007M2061.13 671.945L2090.25 369.641M-76.4925 45.1493L-129.881 139.446M-76.4925 45.1493L-197.137 89.5243M-76.4925 45.1493L-372.556 115.872M-129.881 139.446L-197.137 89.5243M-342.049 496.526L-326.795 445.217M-342.049 496.526L-372.556 115.872M-281.726 212.942L-285.193 255.93M-281.726 212.942L-197.137 89.5243M-281.726 212.942L-372.556 115.872M-285.193 255.93L-326.795 445.217M-285.193 255.93L-372.556 115.872M2003.58 398.069L2011.21 594.289M2003.58 398.069L2090.25 369.641M1870.46 154.7L1813.6 29.8955M1870.46 154.7L2074.3 133.899M1870.46 154.7L1873.23 60.4032M1813.6 29.8955L1873.23 60.4032M1813.6 29.8955L2067.37 40.2958M-222.791 1108.76L-346.902 940.968M-222.791 1108.76L-375.33 1053.99M-346.902 940.968L-375.33 1053.99M-197.137 89.5243L-372.556 115.872M2074.3 133.899L1873.23 60.4032M2074.3 133.899L2090.25 369.641M2074.3 133.899L2067.37 40.2958M2011.21 594.289L2090.25 369.641M1873.23 60.4032L2067.37 40.2958M-326.795 445.217L-372.556 115.872M-372.556 115.872L-375.33 1053.99M2090.25 369.641L2104.12 916.007M2104.12 916.007L2083.32 996.437" stroke="url(#paint0_linear_21_353)"/>
<defs>
<linearGradient id="paint0_linear_21_353" x1="1724.77" y1="0.0811887" x2="0.148774" y2="1117.08" gradientUnits="userSpaceOnUse">
<stop offset="0.0418542" stop-color="#07C8CC"/>
<stop offset="0.497252" stop-color="#1A2036"/>
<stop offset="0.953367" stop-color="#255CD1"/>
</linearGradient>
</defs>
</svg>
