<svg width="2058" height="928" viewBox="0 0 2058 928" fill="none" xmlns="http://www.w3.org/2000/svg">
<path d="M1059.23 514.064L951.166 560.048M1059.23 514.064L1078.2 575.568M1059.23 514.064L959.213 501.419M1059.23 514.064L1197.75 547.977M1059.23 514.064L1015.54 370.939M1059.23 514.064L1034.51 355.42M1059.23 514.064L1194.88 459.458M1059.23 514.064L1174.19 375.538M951.166 560.048L1078.2 575.568M951.166 560.048L959.213 501.419M951.166 560.048L933.922 668.11M951.166 560.048L917.828 592.812M951.166 560.048L840.805 450.836M1078.2 575.568L933.922 668.11M1078.2 575.568L1119.58 705.472M1078.2 575.568L1197.75 547.977M1078.2 575.568L1148.9 682.48M959.213 501.419L1015.54 370.939M959.213 501.419L840.805 450.836M933.922 668.11L917.828 592.812M933.922 668.11L897.71 666.96M933.922 668.11L1119.58 705.472M933.922 668.11L1085.09 781.345M933.922 668.11L933.348 783.644M840.805 450.836L917.828 592.812M840.805 450.836L1015.54 370.939M840.805 450.836L879.317 303.113M840.805 450.836L749.412 518.088M840.805 450.836L729.869 443.939M840.805 450.836L756.31 347.947M840.805 450.836L827.01 308.286M917.828 592.812L897.71 666.96M917.828 592.812L774.128 638.221M917.828 592.812L749.412 518.088M897.71 666.96L774.128 638.221M897.71 666.96L933.348 783.644M897.71 666.96L822.986 822.731M897.71 666.96L811.49 821.581M1085.09 781.345L1119.58 705.472M1085.09 781.345L933.348 783.644M1085.09 781.345L951.166 874.463M1085.09 781.345L1215 818.707M1085.09 781.345L1151.77 872.738M1085.09 781.345L1031.06 925.62M1119.58 705.472L1148.9 682.48M1119.58 705.472L1215 818.707M1197.75 547.977L1148.9 682.48M1197.75 547.977L1194.88 459.458M1197.75 547.977L1250.06 539.355M1197.75 547.977L1237.99 677.307M1148.9 682.48L1237.99 677.307M1148.9 682.48L1215 818.707M1015.54 370.939L1034.51 355.42M1015.54 370.939L879.317 303.113M1015.54 370.939L1010.95 280.121M1034.51 355.42L1174.19 375.538M1034.51 355.42L1010.95 280.121M1034.51 355.42L1154.64 304.263M1194.88 459.458L1250.06 539.355M1194.88 459.458L1174.19 375.538M1194.88 459.458L1334.56 417.498M774.128 638.221L749.412 518.088M774.128 638.221L663.767 715.244M774.128 638.221L626.405 519.237M774.128 638.221L811.49 821.581M879.317 303.113L1010.95 280.121M879.317 303.113L827.01 308.286M879.317 303.113L982.78 152.516M879.317 303.113L844.254 143.319M1174.19 375.538L1334.56 417.498M1174.19 375.538L1154.64 304.263M1174.19 375.538L1336.28 311.735M1215 818.707L1237.99 677.307M1215 818.707L1151.77 872.738M1215 818.707L1333.41 734.212M1215 818.707L1286.27 879.636M1237.99 677.307L1250.06 539.355M1237.99 677.307L1389.74 618.103M1237.99 677.307L1333.41 734.212M1237.99 677.307L1389.74 623.851M933.348 783.644L822.986 822.731M933.348 783.644L951.166 874.463M1250.06 539.355L1334.56 417.498M1250.06 539.355L1424.23 482.45M1250.06 539.355L1389.74 618.103M1334.56 417.498L1424.23 482.45M1334.56 417.498L1336.28 311.735M1334.56 417.498L1351.8 346.798M1334.56 417.498L1488.6 393.931M749.412 518.088L729.869 443.939M749.412 518.088L701.704 464.631M749.412 518.088L626.405 519.237M822.986 822.731L951.166 874.463M822.986 822.731L811.49 821.581M822.986 822.731L864.372 926.769M822.986 822.731L783.9 918.722M1010.95 280.121L1154.64 304.263M1010.95 280.121L982.78 152.516M1010.95 280.121L1031.64 230.689M729.869 443.939L756.31 347.947M729.869 443.939L701.704 464.631M729.869 443.939L663.767 394.506M1154.64 304.263L1336.28 311.735M1154.64 304.263L1031.64 230.689M1154.64 304.263L1117.86 166.886M1154.64 304.263L1254.08 226.09M1336.28 311.735L1351.8 346.798M1336.28 311.735L1254.08 226.09M1336.28 311.735L1349.5 196.201M1336.28 311.735L1383.99 224.366M756.31 347.947L827.01 308.286M756.31 347.947L663.767 394.506M756.31 347.947L659.169 237.586M756.31 347.947L739.066 219.767M626.405 519.237L663.767 715.244M626.405 519.237L701.704 464.631M626.405 519.237L663.767 394.506M626.405 519.237L529.839 626.725M626.405 519.237L595.941 515.789M626.405 519.237L591.343 406.577M663.767 715.244L811.49 821.581M663.767 715.244L529.839 626.725M663.767 715.244V845.148M663.767 715.244L635.027 775.597M663.767 715.244L597.091 736.511M827.01 308.286L739.066 219.767M827.01 308.286L844.254 143.319M739.066 219.767L844.254 143.319M739.066 219.767L659.169 237.586M739.066 219.767L631.579 185.854M739.066 219.767L804.018 126.075M739.066 219.767L652.846 89.2882M844.254 143.319L982.78 152.516M844.254 143.319L913.804 99.6346M844.254 143.319L804.018 126.075M844.254 143.319L816.664 86.989M951.166 874.463L864.372 926.769M951.166 874.463L1031.06 925.62M811.49 821.581L783.9 918.722M811.49 821.581L663.767 845.148M1151.77 872.738L1031.06 925.62M1151.77 872.738L1286.27 879.636M701.704 464.631L663.767 394.506M663.767 394.506L659.169 237.586M663.767 394.506L591.343 406.577M663.767 394.506L590.193 280.696M864.372 926.769L1031.06 925.62M864.372 926.769L783.9 918.722M864.372 926.769L511.446 915.273M864.372 926.769L1805.32 924.47M864.372 926.769L127.48 919.872M982.78 152.516L1031.64 230.689M982.78 152.516L1117.86 166.886M982.78 152.516L913.804 99.6346M982.78 152.516L971.284 21.462M982.78 152.516L1049.46 77.2175M1031.64 230.689L1117.86 166.886M1031.06 925.62L1286.27 879.636M1031.06 925.62L1494.35 881.36M1031.06 925.62L1805.32 924.47M1424.23 482.45L1389.74 618.103M1424.23 482.45L1470.78 554.3M1424.23 482.45L1488.6 393.931M1424.23 482.45L1476.53 480.151M1389.74 618.103V623.851M1389.74 618.103L1470.78 554.3M1333.41 734.212L1286.27 879.636M1333.41 734.212L1389.74 623.851M1333.41 734.212L1392.04 746.857M1333.41 734.212L1366.17 830.203M1286.27 879.636L1366.17 830.203M1286.27 879.636L1494.35 881.36M1389.74 623.851L1392.04 746.857M1389.74 623.851L1470.78 554.3M1389.74 623.851L1491.48 737.086M659.169 237.586L631.579 185.854M659.169 237.586L590.193 280.696M659.169 237.586L605.138 191.602M783.9 918.722L663.767 845.148M783.9 918.722L511.446 915.273M1117.86 166.886L1254.08 226.09M1117.86 166.886L1049.46 77.2175M1117.86 166.886L1143.72 39.2808M1117.86 166.886L1196.03 101.934M1488.6 393.931L1351.8 346.798M1488.6 393.931L1383.99 224.366M1488.6 393.931L1476.53 480.151M1488.6 393.931L1614.48 511.765M1488.6 393.931L1466.19 207.122M1488.6 393.931L1594.37 315.759M1488.6 393.931L1658.17 414.624M1351.8 346.798L1383.99 224.366M1254.08 226.09L1196.03 101.934M1254.08 226.09L1316.16 164.587M1254.08 226.09L1349.5 196.201M1383.99 224.366L1349.5 196.201M1383.99 224.366L1466.19 207.122M1349.5 196.201L1316.16 164.587M1349.5 196.201L1416.18 36.9816M1349.5 196.201L1466.19 207.122M1470.78 554.3L1491.48 737.086M1470.78 554.3L1476.53 480.151M1470.78 554.3L1614.48 511.765M1470.78 554.3L1542.06 717.543M1470.78 554.3L1607.01 572.694M1392.04 746.857L1366.17 830.203M1392.04 746.857L1491.48 737.086M1366.17 830.203L1491.48 737.086M1366.17 830.203L1494.35 881.36M529.839 626.725L597.091 736.511M529.839 626.725L595.941 515.789M529.839 626.725L519.493 503.718M529.839 626.725L442.47 655.465M529.839 626.725L484.43 614.079M591.343 406.577L595.941 515.789M591.343 406.577L590.193 280.696M591.343 406.577L519.493 503.718M591.343 406.577L419.478 424.97M591.343 406.577L409.132 329.554M591.343 406.577L480.407 258.279M595.941 515.789L519.493 503.718M663.767 845.148L635.027 775.597M663.767 845.148L511.446 915.273M597.091 736.511L635.027 775.597M597.091 736.511L442.47 655.465M597.091 736.511L480.981 870.439M597.091 736.511L416.604 788.243M635.027 775.597L511.446 915.273M635.027 775.597L480.981 870.439M590.193 280.696L605.138 191.602M590.193 280.696L480.407 258.279M511.446 915.273L480.981 870.439M511.446 915.273L310.841 906.077M511.446 915.273L127.48 919.872M1491.48 737.086L1542.06 717.543M1491.48 737.086L1611.61 814.109M1491.48 737.086L1494.35 881.36M1476.53 480.151L1614.48 511.765M971.284 21.462L913.804 99.6346M971.284 21.462L816.664 86.989M971.284 21.462L1049.46 77.2175M971.284 21.462L1143.72 39.2808M971.284 21.462L603.988 59.3987M971.284 21.462L1590.34 0.769287M971.284 21.462L507.997 8.81645M913.804 99.6346L816.664 86.989M631.579 185.854L652.846 89.2882M631.579 185.854L605.138 191.602M804.018 126.075L816.664 86.989M804.018 126.075L652.846 89.2882M816.664 86.989L652.846 89.2882M816.664 86.989L603.988 59.3987M1049.46 77.2175L1143.72 39.2808M1143.72 39.2808L1196.03 101.934M1143.72 39.2808L1262.71 82.3906M1143.72 39.2808L1416.18 36.9816M1143.72 39.2808L1590.34 0.769287M519.493 503.718L419.478 424.97M519.493 503.718L484.43 614.079M519.493 503.718L397.061 579.591M1196.03 101.934L1316.16 164.587M1196.03 101.934L1262.71 82.3906M1316.16 164.587L1262.71 82.3906M1316.16 164.587L1416.18 36.9816M1416.18 36.9816L1262.71 82.3906M1416.18 36.9816L1466.19 207.122M1416.18 36.9816L1536.89 88.1386M1416.18 36.9816L1590.34 0.769287M419.478 424.97L409.132 329.554M419.478 424.97L397.061 579.591M419.478 424.97L350.502 427.844M419.478 424.97L393.037 366.341M1614.48 511.765L1607.01 572.694M1614.48 511.765L1660.47 614.079M1614.48 511.765L1658.17 414.624M1614.48 511.765L1838.08 496.245M605.138 191.602L652.846 89.2882M605.138 191.602L480.407 258.279M605.138 191.602L460.863 129.524M605.138 191.602L603.988 59.3987M652.846 89.2882L603.988 59.3987M442.47 655.465L484.43 614.079M442.47 655.465L397.061 579.591M442.47 655.465L416.604 788.243M442.47 655.465L333.833 753.18M442.47 655.465L317.739 672.708M480.981 870.439L416.604 788.243M480.981 870.439L310.841 906.077M484.43 614.079L397.061 579.591M397.061 579.591L350.502 427.844M397.061 579.591L317.739 672.708M397.061 579.591L299.92 633.622M397.061 579.591L233.243 535.332M397.061 579.591L257.385 481.301M1542.06 717.543L1611.61 814.109M1542.06 717.543L1607.01 572.694M1542.06 717.543L1630 711.795M1611.61 814.109L1630 711.795M1611.61 814.109L1494.35 881.36M1611.61 814.109L1596.09 871.589M1611.61 814.109L1741.51 748.582M1611.61 814.109L1722.55 852.62M409.132 329.554L480.407 258.279M409.132 329.554L317.739 264.602M409.132 329.554L393.037 366.341M1466.19 207.122L1516.77 199.649M1466.19 207.122L1594.37 315.759M1466.19 207.122L1536.89 88.1386M1516.77 199.649L1594.37 315.759M1516.77 199.649L1536.89 88.1386M1516.77 199.649L1575.97 205.397M1594.37 315.759L1658.17 414.624M1594.37 315.759L1575.97 205.397M1594.37 315.759L1662.77 191.028M1594.37 315.759L1705.88 266.326M1494.35 881.36L1596.09 871.589M1494.35 881.36L1805.32 924.47M1607.01 572.694L1630 711.795M1607.01 572.694L1660.47 614.079M1607.01 572.694L1661.04 623.851M1630 711.795L1661.04 623.851M1630 711.795L1741.51 748.582M603.988 59.3987L460.863 129.524M603.988 59.3987L507.997 8.81645M480.407 258.279L460.863 129.524M480.407 258.279L317.739 264.602M480.407 258.279L324.061 148.492M460.863 129.524L507.997 8.81645M460.863 129.524L324.061 148.492M460.863 129.524L364.872 55.9499M416.604 788.243L333.833 753.18M416.604 788.243L310.841 906.077M1658.17 414.624L1838.08 496.245M1658.17 414.624L1747.84 393.357M1658.17 414.624L1705.88 266.326M1660.47 614.079L1661.04 623.851M1660.47 614.079L1773.13 642.244M1660.47 614.079L1838.08 496.245M1660.47 614.079L1840.95 575.568M333.833 753.18L317.739 672.708M333.833 753.18L286.125 731.913M333.833 753.18L310.841 906.077M333.833 753.18L252.212 866.99M310.841 906.077L252.212 866.99M310.841 906.077L127.48 919.872M1661.04 623.851L1741.51 748.582M1661.04 623.851L1773.13 642.244M1741.51 748.582L1722.55 852.62M1741.51 748.582L1773.13 642.244M1741.51 748.582L1822.56 731.338M350.502 427.844L240.141 395.656M350.502 427.844L393.037 366.341M350.502 427.844L257.385 481.301M317.739 264.602L393.037 366.341M317.739 264.602L293.022 267.476M317.739 264.602L324.061 148.492M393.037 366.341L240.141 395.656M393.037 366.341L293.022 267.476M1596.09 871.589L1722.55 852.62M1596.09 871.589L1805.32 924.47M1838.08 496.245L1747.84 393.357M1838.08 496.245L1840.95 575.568M1838.08 496.245L1900.16 524.411M1838.08 496.245L1875.44 348.522M1838.08 496.245L1931.77 506.592M1747.84 393.357L1705.88 266.326M1747.84 393.357L1783.47 310.011M1747.84 393.357L1875.44 348.522M1536.89 88.1386L1575.97 205.397M1536.89 88.1386L1622.53 145.044M1536.89 88.1386L1590.34 0.769287M1590.34 0.769287L1713.92 92.737M1590.34 0.769287L1622.53 145.044M1590.34 0.769287L507.997 8.81645M1590.34 0.769287L1815.66 25.4856M1590.34 0.769287L2026.04 34.1076M1575.97 205.397L1622.53 145.044M1575.97 205.397L1662.77 191.028M1622.53 145.044L1662.77 191.028M1622.53 145.044L1713.92 92.737M1662.77 191.028L1705.88 266.326M1662.77 191.028L1713.92 92.737M1662.77 191.028L1792.1 178.957M240.141 395.656L257.385 481.301M240.141 395.656L293.022 267.476M240.141 395.656L195.881 393.931M317.739 672.708L299.92 633.622M317.739 672.708L286.125 731.913M299.92 633.622L233.243 535.332M299.92 633.622L286.125 731.913M299.92 633.622L168.866 759.503M299.92 633.622L104.489 624.425M286.125 731.913L168.866 759.503M286.125 731.913L252.212 866.99M233.243 535.332L257.385 481.301M233.243 535.332L183.811 531.883M233.243 535.332L181.512 496.82M233.243 535.332L104.489 624.425M1705.88 266.326L1783.47 310.011M1705.88 266.326L1800.14 299.09M1705.88 266.326L1792.1 178.957M1773.13 642.244L1822.56 731.338M1773.13 642.244L1840.95 575.568M1773.13 642.244L1865.67 699.724M1722.55 852.62L1822.56 731.338M1722.55 852.62L1878.89 853.77M1722.55 852.62L1805.32 924.47M507.997 8.81645L364.872 55.9499M507.997 8.81645L248.763 38.1312M293.022 267.476L324.061 148.492M293.022 267.476L195.881 393.931M293.022 267.476L170.016 165.162M293.022 267.476L107.937 230.114M324.061 148.492L364.872 55.9499M324.061 148.492L170.016 165.162M324.061 148.492L204.503 116.304M324.061 148.492L248.763 38.1312M257.385 481.301L195.881 393.931M257.385 481.301L181.512 496.82M168.866 759.503L252.212 866.99M168.866 759.503L104.489 624.425M168.866 759.503L127.48 919.872M168.866 759.503L24.5916 780.771M168.866 759.503L39.5364 662.362M1822.56 731.338L1865.67 699.724M1822.56 731.338L1917.4 730.188M1822.56 731.338L1878.89 853.77M183.811 531.883L181.512 496.82M183.811 531.883L104.489 624.425M183.811 531.883L15.9696 522.686M181.512 496.82L195.881 393.931M181.512 496.82L28.6152 412.325M181.512 496.82L15.9696 522.686M252.212 866.99L127.48 919.872M1713.92 92.737L1792.1 178.957M1713.92 92.737L1862.8 128.949M1713.92 92.737L1815.66 25.4856M195.881 393.931L107.937 230.114M195.881 393.931L28.6152 412.325M195.881 393.931L41.2608 369.79M364.872 55.9499L248.763 38.1312M1783.47 310.011L1800.14 299.09M1783.47 310.011L1875.44 348.522M1792.1 178.957L1911.65 298.515M1792.1 178.957L1800.14 299.09M1792.1 178.957L1862.8 128.949M1800.14 299.09L1875.44 348.522M1800.14 299.09L1911.65 298.515M1875.44 348.522L1931.77 506.592M1875.44 348.522L1911.65 298.515M1875.44 348.522L1973.16 330.703M1875.44 348.522L1979.48 493.371M1840.95 575.568L1865.67 699.724M1840.95 575.568L1900.16 524.411M1840.95 575.568L2014.54 668.11M1865.67 699.724L1917.4 730.188M1865.67 699.724L2014.54 668.11M104.489 624.425L39.5364 662.362M104.489 624.425L15.9696 522.686M170.016 165.162L204.503 116.304M170.016 165.162L148.748 74.9183M170.016 165.162L107.937 230.114M170.016 165.162L78.6227 177.232M107.937 230.114L78.6227 177.232M107.937 230.114L75.7487 212.87M107.937 230.114L41.2608 369.79M1900.16 524.411L2014.54 668.11M1900.16 524.411L1931.77 506.592M1900.16 524.411L2020.87 557.749M1917.4 730.188L1878.89 853.77M1917.4 730.188L2014.54 668.11M1917.4 730.188L2056.5 760.078M1917.4 730.188L2039.26 826.754M1911.65 298.515L1973.16 330.703M1911.65 298.515L1862.8 128.949M1911.65 298.515L2031.79 111.705M1911.65 298.515L2045.01 307.137M1878.89 853.77L1805.32 924.47M1878.89 853.77L2039.26 826.754M1805.32 924.47L2039.26 826.754M2014.54 668.11L2056.5 760.078M2014.54 668.11L2020.87 557.749M1931.77 506.592L2020.87 557.749M1931.77 506.592L1979.48 493.371M39.5364 662.362L15.9696 522.686M39.5364 662.362L24.5916 780.771M15.9696 522.686L28.6152 412.325M15.9696 522.686L24.5916 780.771M15.9696 522.686L1.0249 874.463M15.9696 522.686L3.3241 96.7606M2020.87 557.749L1979.48 493.371M2020.87 557.749L2056.5 760.078M2020.87 557.749L2045.01 307.137M248.763 38.1312L204.503 116.304M248.763 38.1312L148.748 74.9183M248.763 38.1312L3.3241 96.7606M204.503 116.304L148.748 74.9183M28.6152 412.325L41.2608 369.79M28.6152 412.325L3.3241 96.7606M78.6227 177.232L75.7487 212.87M78.6227 177.232L148.748 74.9183M78.6227 177.232L3.3241 96.7606M75.7487 212.87L41.2608 369.79M75.7487 212.87L3.3241 96.7606M1973.16 330.703L1979.48 493.371M1973.16 330.703L2045.01 307.137M1862.8 128.949L1815.66 25.4856M1862.8 128.949L2031.79 111.705M1862.8 128.949L1865.1 50.7767M1815.66 25.4856L1865.1 50.7767M1815.66 25.4856L2026.04 34.1076M127.48 919.872L24.5916 780.771M127.48 919.872L1.0249 874.463M24.5916 780.771L1.0249 874.463M148.748 74.9183L3.3241 96.7606M2031.79 111.705L1865.1 50.7767M2031.79 111.705L2045.01 307.137M2031.79 111.705L2026.04 34.1076M1979.48 493.371L2045.01 307.137M1865.1 50.7767L2026.04 34.1076M41.2608 369.79L3.3241 96.7606M3.3241 96.7606L1.0249 874.463M2045.01 307.137L2056.5 760.078M2056.5 760.078L2039.26 826.754" stroke="url(#paint0_linear_92_223)"/>
<defs>
<linearGradient id="paint0_linear_92_223" x1="1179.68" y1="0.769346" x2="901.963" y2="926.769" gradientUnits="userSpaceOnUse">
<stop stop-color="#07C8CC"/>
<stop offset="0.497252" stop-color="#1A2036"/>
<stop offset="1" stop-color="#255CD1"/>
</linearGradient>
</defs>
</svg>
